<svg width="60" height="28" viewBox="0 0 60 28" fill="none" xmlns="http://www.w3.org/2000/svg">
<g filter="url(#filter0_d_2117_2)">
<path d="M53.6395 12.5889C46.7693 15.5484 39.8245 18.3978 32.928 21.3248C31.1817 22.1532 29.0874 22.2472 27.3168 21.424C23.2011 19.672 19.1016 17.8722 14.9955 16.0971C13.3222 15.3913 4.79347 11.3334 4.5 9.5C3.5 7.08596 4.24757 3.19959 8 2.5C10 1.5 17.611 6.07932 19.0365 6.54018C21.8724 7.80666 24.6615 9.18828 27.5168 10.414C29.1436 11.0961 31.0211 10.9804 32.6186 10.2819C37.7738 8.1379 42.9041 5.93488 48.0634 3.79998C50.1378 3.00051 52.73 3.0507 54.3436 4.77075C56.5997 6.87576 56.2071 10.9201 53.6395 12.5889Z" fill="white"/>
</g>
<defs>
<filter id="filter0_d_2117_2" x="0.0964355" y="0.357605" width="59.7273" height="27.6383" filterUnits="userSpaceOnUse" color-interpolation-filters="sRGB">
<feFlood flood-opacity="0" result="BackgroundImageFix"/>
<feColorMatrix in="SourceAlpha" type="matrix" values="0 0 0 0 0 0 0 0 0 0 0 0 0 0 0 0 0 0 127 0" result="hardAlpha"/>
<feOffset dy="2"/>
<feGaussianBlur stdDeviation="2"/>
<feComposite in2="hardAlpha" operator="out"/>
<feColorMatrix type="matrix" values="0 0 0 0 0.4875 0 0 0 0 0.47125 0 0 0 0 0.47125 0 0 0 0.25 0"/>
<feBlend mode="normal" in2="BackgroundImageFix" result="effect1_dropShadow_2117_2"/>
<feBlend mode="normal" in="SourceGraphic" in2="effect1_dropShadow_2117_2" result="shape"/>
</filter>
</defs>
</svg>
