<svg width="96" height="71" viewBox="0 0 96 71" fill="none" xmlns="http://www.w3.org/2000/svg">
<g clip-path="url(#clip0_701_38)" filter="url(#filter0_d_701_38)">
<g filter="url(#filter1_d_701_38)">
<path d="M75.1461 0.173096C80.5166 4.80721 85.8871 9.44494 91.231 14.1097C85.9588 18.8901 80.4774 23.4593 75.1228 28.1563C75.1353 25.0134 75.1032 21.8721 75.1337 18.731C71.7369 18.7364 68.3401 18.7114 64.9451 18.742C63.3129 18.7456 61.7771 19.5679 60.6776 20.7543C50.9253 30.9925 41.1532 41.213 31.4044 51.4549C30.321 52.5891 28.8103 53.3302 27.2317 53.3158C21.03 53.3555 14.8262 53.2851 8.6263 53.3571C6.32166 53.2886 4.34454 51.1825 4.34633 48.869C4.23191 46.3608 6.42374 44.1988 8.86586 44.1247C13.7912 44.0778 18.722 44.1518 23.6473 44.0906C25.444 44.0796 27.0262 43.0232 28.1597 41.6888C37.7637 31.6022 47.3785 21.5241 56.9878 11.4409C58.0677 10.2526 59.6195 9.52049 61.2213 9.48443C65.8587 9.46459 70.4982 9.50246 75.1339 9.46622C75.1244 6.36875 75.0996 3.2711 75.1461 0.173096Z" fill="url(#paint0_linear_701_38)" shape-rendering="crispEdges"/>
</g>
<g filter="url(#filter2_d_701_38)">
<path d="M7.80518 9.46298C14.5094 9.4069 21.237 9.46839 27.9518 9.44855C29.6824 9.37102 31.4451 10.0256 32.6215 11.3292C35.4121 14.2253 38.1726 17.1554 40.9472 20.0673C42.0841 21.2394 42.7082 22.9452 42.3131 24.5716C41.8823 26.5623 39.9926 28.1453 37.9581 28.1257C36.5763 28.1888 35.3032 27.4783 34.2859 26.5966C32.3837 24.5518 30.5602 22.4277 28.6278 20.4099C27.5211 19.274 25.93 18.7132 24.3675 18.7348C19.3634 18.7132 14.3594 18.7492 9.3552 18.7186C7.3636 18.6573 5.2397 17.7086 4.50492 15.7145C3.37325 13.1757 5.10383 9.95163 7.80518 9.46298Z" fill="white"/>
</g>
<g filter="url(#filter3_d_701_38)">
<path d="M48.7081 35.3726C50.4369 33.9789 53.1472 34.1809 54.6722 35.7909C56.7619 37.9511 58.8073 40.1563 60.899 42.3147C61.986 43.4705 63.5521 44.1305 65.1307 44.1143C68.4668 44.1017 71.8026 44.1287 75.1406 44.098C75.1066 41.0128 75.1281 37.9275 75.1334 34.8424C80.5451 39.4657 85.9156 44.1377 91.2772 48.8205C85.9227 53.4997 80.5395 58.1447 75.1476 62.7788C75.0796 59.6232 75.1547 56.4659 75.1138 53.3104C70.4709 53.2671 65.828 53.3066 61.1851 53.2906C59.585 53.2761 58.0439 52.5062 56.9731 51.3233C53.9821 48.2092 50.9428 45.1439 47.9823 42.003C46.2678 40.115 46.6486 36.8494 48.7081 35.3726Z" fill="white"/>
</g>
</g>
<defs>
<filter id="filter0_d_701_38" x="0.0930176" y="0" width="95.2441" height="70.9302" filterUnits="userSpaceOnUse" color-interpolation-filters="sRGB">
<feFlood flood-opacity="0" result="BackgroundImageFix"/>
<feColorMatrix in="SourceAlpha" type="matrix" values="0 0 0 0 0 0 0 0 0 0 0 0 0 0 0 0 0 0 127 0" result="hardAlpha"/>
<feOffset dy="4"/>
<feGaussianBlur stdDeviation="2"/>
<feComposite in2="hardAlpha" operator="out"/>
<feColorMatrix type="matrix" values="0 0 0 0 0 0 0 0 0 0 0 0 0 0 0 0 0 0 0.25 0"/>
<feBlend mode="normal" in2="BackgroundImageFix" result="effect1_dropShadow_701_38"/>
<feBlend mode="normal" in="SourceGraphic" in2="effect1_dropShadow_701_38" result="shape"/>
</filter>
<filter id="filter1_d_701_38" x="0.342041" y="-1.8269" width="94.8889" height="61.184" filterUnits="userSpaceOnUse" color-interpolation-filters="sRGB">
<feFlood flood-opacity="0" result="BackgroundImageFix"/>
<feColorMatrix in="SourceAlpha" type="matrix" values="0 0 0 0 0 0 0 0 0 0 0 0 0 0 0 0 0 0 127 0" result="hardAlpha"/>
<feOffset dy="2"/>
<feGaussianBlur stdDeviation="2"/>
<feComposite in2="hardAlpha" operator="out"/>
<feColorMatrix type="matrix" values="0 0 0 0 0.4875 0 0 0 0 0.47125 0 0 0 0 0.47125 0 0 0 0.25 0"/>
<feBlend mode="normal" in2="BackgroundImageFix" result="effect1_dropShadow_701_38"/>
<feBlend mode="normal" in="SourceGraphic" in2="effect1_dropShadow_701_38" result="shape"/>
</filter>
<filter id="filter2_d_701_38" x="0.153076" y="7.43872" width="46.2788" height="26.6908" filterUnits="userSpaceOnUse" color-interpolation-filters="sRGB">
<feFlood flood-opacity="0" result="BackgroundImageFix"/>
<feColorMatrix in="SourceAlpha" type="matrix" values="0 0 0 0 0 0 0 0 0 0 0 0 0 0 0 0 0 0 127 0" result="hardAlpha"/>
<feOffset dy="2"/>
<feGaussianBlur stdDeviation="2"/>
<feComposite in2="hardAlpha" operator="out"/>
<feColorMatrix type="matrix" values="0 0 0 0 0.4875 0 0 0 0 0.47125 0 0 0 0 0.47125 0 0 0 0.25 0"/>
<feBlend mode="normal" in2="BackgroundImageFix" result="effect1_dropShadow_701_38"/>
<feBlend mode="normal" in="SourceGraphic" in2="effect1_dropShadow_701_38" result="shape"/>
</filter>
<filter id="filter3_d_701_38" x="42.8997" y="32.4434" width="52.3774" height="36.3354" filterUnits="userSpaceOnUse" color-interpolation-filters="sRGB">
<feFlood flood-opacity="0" result="BackgroundImageFix"/>
<feColorMatrix in="SourceAlpha" type="matrix" values="0 0 0 0 0 0 0 0 0 0 0 0 0 0 0 0 0 0 127 0" result="hardAlpha"/>
<feOffset dy="2"/>
<feGaussianBlur stdDeviation="2"/>
<feComposite in2="hardAlpha" operator="out"/>
<feColorMatrix type="matrix" values="0 0 0 0 0.4875 0 0 0 0 0.47125 0 0 0 0 0.47125 0 0 0 0.25 0"/>
<feBlend mode="normal" in2="BackgroundImageFix" result="effect1_dropShadow_701_38"/>
<feBlend mode="normal" in="SourceGraphic" in2="effect1_dropShadow_701_38" result="shape"/>
</filter>
<linearGradient id="paint0_linear_701_38" x1="47.7866" y1="0.173096" x2="47.714" y2="56.1684" gradientUnits="userSpaceOnUse">
<stop stop-color="#47186A"/>
<stop offset="0.932655" stop-color="#210C31" stop-opacity="0.63"/>
<stop offset="0.9999" stop-color="#001AFF" stop-opacity="0.0260417"/>
<stop offset="1" stop-color="#210C31" stop-opacity="0.66"/>
</linearGradient>
<clipPath id="clip0_701_38">
<rect width="87.2442" height="62.9302" fill="white" transform="translate(4.09302)"/>
</clipPath>
</defs>
</svg>
